<svg width="95" height="59" viewBox="0 0 95 59" fill="none" xmlns="http://www.w3.org/2000/svg">
<path d="M5.09497 54.3718C4.50978 54.3718 3.95003 54.2891 3.41573 54.1237C2.88142 53.9584 2.39165 53.7103 1.94639 53.3795C1.50114 53.0488 1.11313 52.648 0.782374 52.1774C0.451614 51.6939 0.190823 51.1342 0 50.4981L2.42345 49.544C2.60155 50.231 2.91323 50.8034 3.35848 51.2614C3.80374 51.7067 4.38893 51.9293 5.11405 51.9293C5.3812 51.9293 5.63563 51.8975 5.87734 51.8339C6.13177 51.7575 6.3544 51.6558 6.54522 51.5286C6.74877 51.3886 6.90779 51.2169 7.02228 51.0133C7.13677 50.8098 7.19402 50.5744 7.19402 50.3073C7.19402 50.0529 7.1495 49.8239 7.06044 49.6203C6.97139 49.4168 6.81874 49.226 6.60247 49.0479C6.39893 48.8698 6.12541 48.698 5.78193 48.5326C5.45117 48.3673 5.03772 48.1955 4.54158 48.0174L3.70196 47.7121C3.33304 47.5849 2.95775 47.4131 2.57611 47.1969C2.20718 46.9806 1.87006 46.7198 1.56475 46.4145C1.25943 46.1092 1.005 45.753 0.801456 45.3459C0.610633 44.9261 0.515222 44.4554 0.515222 43.9338C0.515222 43.3995 0.616994 42.9034 0.820538 42.4454C1.0368 41.9747 1.33576 41.5676 1.71741 41.2241C2.11177 40.8679 2.57611 40.5944 3.11041 40.4036C3.65744 40.2 4.26171 40.0983 4.92323 40.0983C5.61019 40.0983 6.20174 40.1937 6.69788 40.3845C7.20674 40.5626 7.63291 40.798 7.9764 41.0905C8.3326 41.3704 8.61883 41.6821 8.8351 42.0256C9.05136 42.3691 9.21038 42.6935 9.31215 42.9988L7.04136 43.9529C6.91415 43.5712 6.6788 43.2278 6.33532 42.9224C6.00456 42.6171 5.54658 42.4645 4.96139 42.4645C4.40165 42.4645 3.93731 42.598 3.56839 42.8652C3.19946 43.1196 3.015 43.4567 3.015 43.8766C3.015 44.2836 3.1931 44.6335 3.5493 44.9261C3.90551 45.206 4.47162 45.4795 5.24763 45.7466L6.10633 46.0329C6.65336 46.2237 7.1495 46.4463 7.59475 46.7007C8.05272 46.9424 8.44073 47.235 8.75877 47.5785C9.08953 47.922 9.3376 48.3164 9.50298 48.7616C9.68108 49.1942 9.77013 49.6967 9.77013 50.2691C9.77013 50.9815 9.62383 51.5985 9.33124 52.1201C9.05136 52.629 8.6888 53.0488 8.24355 53.3795C7.79829 53.7103 7.29579 53.9584 6.73605 54.1237C6.1763 54.2891 5.62927 54.3718 5.09497 54.3718Z" fill="#F9F6EE"/>
<path d="M20.4409 51.8148C20.0083 52.5781 19.4231 53.1951 18.6853 53.6658C17.9602 54.1365 17.0696 54.3718 16.0138 54.3718C15.3014 54.3718 14.6398 54.251 14.0292 54.0093C13.4313 53.7548 12.9097 53.405 12.4645 52.9597C12.0192 52.5145 11.6694 51.9929 11.4149 51.395C11.1732 50.7843 11.0524 50.1165 11.0524 49.3913C11.0524 48.7171 11.1732 48.081 11.4149 47.4831C11.6566 46.8725 11.9938 46.3445 12.4263 45.8993C12.8588 45.4413 13.3677 45.0787 13.9529 44.8116C14.5508 44.5444 15.2059 44.4109 15.9184 44.4109C16.6689 44.4109 17.3368 44.5381 17.922 44.7925C18.5072 45.0342 18.997 45.3777 19.3913 45.823C19.7857 46.2555 20.0847 46.7707 20.2882 47.3686C20.4917 47.9665 20.5935 48.6153 20.5935 49.315C20.5935 49.4041 20.5935 49.4804 20.5935 49.544C20.5808 49.6203 20.5744 49.6903 20.5744 49.7539C20.5617 49.8175 20.5553 49.8875 20.5553 49.9638H13.514C13.5649 50.3455 13.6666 50.6762 13.8193 50.9561C13.9847 51.2232 14.1819 51.4522 14.4109 51.643C14.6526 51.8212 14.9134 51.9547 15.1932 52.0438C15.4731 52.1201 15.7593 52.1583 16.0519 52.1583C16.6244 52.1583 17.0951 52.0311 17.464 51.7766C17.8457 51.5095 18.1446 51.1787 18.3609 50.7843L20.4409 51.8148ZM18.1701 48.1892C18.1573 48.0238 18.1001 47.8393 17.9983 47.6358C17.9093 47.4322 17.7693 47.2414 17.5785 47.0633C17.4004 46.8852 17.1714 46.7389 16.8915 46.6244C16.6244 46.5099 16.3 46.4527 15.9184 46.4527C15.384 46.4527 14.9134 46.6053 14.5063 46.9106C14.0992 47.216 13.8129 47.6421 13.6476 48.1892H18.1701Z" fill="#F9F6EE"/>
<path d="M26.5958 58.4936C25.9343 58.4936 25.3427 58.4045 24.8211 58.2264C24.3123 58.0611 23.867 57.8384 23.4854 57.5586C23.1037 57.2914 22.7857 56.9924 22.5313 56.6617C22.2768 56.3309 22.0924 56.0002 21.9779 55.6694L24.3632 54.7153C24.5413 55.2114 24.8339 55.5931 25.2409 55.8602C25.648 56.1401 26.0996 56.28 26.5958 56.28C27.3845 56.28 28.0079 56.032 28.4658 55.5358C28.9238 55.0524 29.1528 54.3718 29.1528 53.494V52.8452H29.0002C28.7076 53.2523 28.3195 53.5767 27.8361 53.8184C27.3654 54.0474 26.8057 54.1619 26.1569 54.1619C25.5971 54.1619 25.0501 54.0474 24.5158 53.8184C23.9942 53.5894 23.5299 53.265 23.1228 52.8452C22.7157 52.4127 22.385 51.8975 22.1305 51.2996C21.8761 50.7017 21.7489 50.0338 21.7489 49.2959C21.7489 48.5581 21.8761 47.8902 22.1305 47.2923C22.385 46.6817 22.7157 46.1664 23.1228 45.7466C23.5299 45.3141 23.9942 44.9833 24.5158 44.7543C25.0501 44.5254 25.5971 44.4109 26.1569 44.4109C26.8057 44.4109 27.3654 44.5317 27.8361 44.7734C28.3195 45.0024 28.7076 45.3205 29.0002 45.7275H29.1528V44.7162H31.5381V53.3986C31.5381 54.1874 31.4172 54.8934 31.1755 55.5168C30.9338 56.1528 30.5967 56.6871 30.1642 57.1197C29.7316 57.5649 29.2101 57.902 28.5994 58.131C28.0015 58.3727 27.3336 58.4936 26.5958 58.4936ZM26.6912 51.9102C26.9965 51.9102 27.2955 51.853 27.5881 51.7385C27.8934 51.624 28.1605 51.4586 28.3895 51.2423C28.6185 51.0133 28.803 50.7398 28.9429 50.4218C29.0828 50.091 29.1528 49.7157 29.1528 49.2959C29.1528 48.8761 29.0828 48.5008 28.9429 48.1701C28.803 47.8393 28.6185 47.5658 28.3895 47.3495C28.1605 47.1205 27.8934 46.9488 27.5881 46.8343C27.2955 46.7198 26.9965 46.6626 26.6912 46.6626C26.3859 46.6626 26.0869 46.7198 25.7943 46.8343C25.5017 46.9488 25.2409 47.1205 25.012 47.3495C24.783 47.5785 24.5985 47.8584 24.4586 48.1892C24.3186 48.5072 24.2487 48.8761 24.2487 49.2959C24.2487 49.7157 24.3186 50.091 24.4586 50.4218C24.5985 50.7398 24.783 51.0133 25.012 51.2423C25.2409 51.4586 25.5017 51.624 25.7943 51.7385C26.0869 51.853 26.3859 51.9102 26.6912 51.9102Z" fill="#F9F6EE"/>
<path d="M39.3389 53.0742H39.1862C38.8936 53.4304 38.5374 53.7357 38.1176 53.9902C37.7105 54.2446 37.1826 54.3718 36.5338 54.3718C36.0504 54.3718 35.5924 54.2891 35.1599 54.1237C34.74 53.9711 34.3711 53.7548 34.0531 53.4749C33.735 53.1951 33.487 52.858 33.3089 52.4636C33.1308 52.0692 33.0417 51.6367 33.0417 51.166C33.0417 50.6826 33.1371 50.25 33.328 49.8684C33.5188 49.474 33.7859 49.1369 34.1294 48.857C34.4729 48.5772 34.8736 48.3673 35.3316 48.2273C35.8023 48.0747 36.3111 47.9983 36.8582 47.9983C37.4688 47.9983 37.9713 48.0492 38.3657 48.151C38.76 48.24 39.0844 48.3355 39.3389 48.4372V48.151C39.3389 47.6549 39.1417 47.2478 38.7473 46.9297C38.353 46.599 37.8632 46.4336 37.278 46.4336C36.4129 46.4336 35.6814 46.7961 35.0835 47.5213L33.2707 46.2809C34.263 45.0342 35.6178 44.4109 37.3352 44.4109C38.7855 44.4109 39.8923 44.7543 40.6556 45.4413C41.4188 46.1155 41.8005 47.1205 41.8005 48.4563V54.0665H39.3389V53.0742ZM39.3389 50.2691C39.0463 50.1292 38.741 50.0211 38.4229 49.9447C38.1176 49.8557 37.7805 49.8112 37.4116 49.8112C36.8136 49.8112 36.3493 49.9447 36.0186 50.2119C35.7005 50.4663 35.5415 50.7843 35.5415 51.166C35.5415 51.5476 35.6942 51.853 35.9995 52.0819C36.3175 52.3109 36.6801 52.4254 37.0872 52.4254C37.4179 52.4254 37.7232 52.3682 38.0031 52.2537C38.283 52.1265 38.5183 51.9674 38.7092 51.7766C38.9127 51.5731 39.0654 51.3441 39.1671 51.0897C39.2816 50.8225 39.3389 50.549 39.3389 50.2691Z" fill="#F9F6EE"/>
<path d="M43.788 44.7162H46.1351V46.0138H46.2878C46.4023 45.7848 46.555 45.5749 46.7458 45.3841C46.9366 45.1932 47.1465 45.0279 47.3755 44.8879C47.6172 44.748 47.8716 44.6399 48.1388 44.5635C48.4187 44.4872 48.6922 44.449 48.9593 44.449C49.2901 44.449 49.57 44.4808 49.7989 44.5444C50.0407 44.608 50.2442 44.6907 50.4096 44.7925L49.7417 47.0633C49.589 46.987 49.4173 46.9297 49.2265 46.8916C49.0484 46.8407 48.8258 46.8152 48.5586 46.8152C48.2151 46.8152 47.9034 46.8852 47.6236 47.0251C47.3437 47.1524 47.102 47.3368 46.8984 47.5785C46.7076 47.8202 46.555 48.1065 46.4405 48.4372C46.3387 48.7553 46.2878 49.1051 46.2878 49.4868V54.0665H43.788V44.7162Z" fill="#F9F6EE"/>
<path d="M56.057 40.4036H61.0375C61.7245 40.4036 62.3478 40.5117 62.9076 40.728C63.4673 40.9442 63.9444 41.2432 64.3388 41.6249C64.7458 42.0065 65.0575 42.4645 65.2738 42.9988C65.4901 43.5204 65.5982 44.0928 65.5982 44.7162C65.5982 45.1742 65.5219 45.6067 65.3692 46.0138C65.2165 46.4081 65.0066 46.7707 64.7395 47.1015C64.4723 47.4195 64.1607 47.7057 63.8045 47.9602C63.4482 48.2019 63.073 48.3927 62.6786 48.5326L62.6595 48.6662L66.3233 53.9138V54.0665H63.3656L59.8353 48.9334H58.6331V54.0665H56.057V40.4036ZM61.0184 46.5672C61.6036 46.5672 62.0807 46.3891 62.4496 46.0329C62.8313 45.6767 63.0221 45.225 63.0221 44.678C63.0221 44.4363 62.9776 44.201 62.8885 43.972C62.8122 43.743 62.6913 43.5394 62.5259 43.3613C62.3606 43.1832 62.1507 43.0433 61.8962 42.9415C61.6545 42.827 61.3746 42.7698 61.0566 42.7698H58.6331V46.5672H61.0184Z" fill="#F9F6EE"/>
<path d="M68.978 43.3613C68.7617 43.3613 68.5518 43.3232 68.3483 43.2468C68.1574 43.1578 67.9857 43.0433 67.833 42.9034C67.6931 42.7507 67.5786 42.579 67.4896 42.3881C67.4132 42.1973 67.3751 41.9874 67.3751 41.7584C67.3751 41.5294 67.4132 41.3195 67.4896 41.1287C67.5786 40.9379 67.6931 40.7725 67.833 40.6326C67.9857 40.4799 68.1574 40.3654 68.3483 40.2891C68.5518 40.2 68.7617 40.1555 68.978 40.1555C69.4232 40.1555 69.8049 40.3145 70.1229 40.6326C70.441 40.9379 70.6 41.3132 70.6 41.7584C70.6 42.2037 70.441 42.5853 70.1229 42.9034C69.8049 43.2087 69.4232 43.3613 68.978 43.3613ZM67.7376 54.0665V44.7162H70.2374V54.0665H67.7376Z" fill="#F9F6EE"/>
<path d="M72.0653 52.0056L76.8359 46.8534H72.2179V44.7162H79.9081V46.7771L75.1375 51.9293H79.9844V54.0665H72.0653V52.0056Z" fill="#F9F6EE"/>
<path d="M81.8408 40.4036H84.3406V47.8457H84.4551L87.5845 44.7162H90.6759V44.8688L87.2029 48.2464L90.9621 53.9138V54.0665H88.0044L85.4473 49.9638L84.3406 51.0515V54.0665H81.8408V40.4036Z" fill="#F9F6EE"/>
<path d="M93.3526 43.3613C93.1364 43.3613 92.9264 43.3232 92.7229 43.2468C92.5321 43.1578 92.3603 43.0433 92.2077 42.9034C92.0677 42.7507 91.9533 42.579 91.8642 42.3881C91.7879 42.1973 91.7497 41.9874 91.7497 41.7584C91.7497 41.5294 91.7879 41.3195 91.8642 41.1287C91.9533 40.9379 92.0677 40.7725 92.2077 40.6326C92.3603 40.4799 92.5321 40.3654 92.7229 40.2891C92.9264 40.2 93.1364 40.1555 93.3526 40.1555C93.7979 40.1555 94.1795 40.3145 94.4976 40.6326C94.8156 40.9379 94.9746 41.3132 94.9746 41.7584C94.9746 42.2037 94.8156 42.5853 94.4976 42.9034C94.1795 43.2087 93.7979 43.3613 93.3526 43.3613ZM92.1123 54.0665V44.7162H94.6121V54.0665H92.1123Z" fill="#F9F6EE"/>
<path d="M47.2876 0C51.2299 0 55.0303 1.46692 57.9429 4.11328C60.8553 6.75963 62.6705 10.3945 63.0317 14.3047H64.5356C64.9167 14.3048 65.2818 14.4563 65.5513 14.7246C65.8207 14.993 65.9721 15.3568 65.9722 15.7363C65.9659 19.1408 65.0256 22.4792 63.2524 25.3896C61.4792 28.3001 58.9405 30.6725 55.9116 32.25V32.916C55.9116 33.6753 55.6088 34.4035 55.0698 34.9404C54.5307 35.4774 53.799 35.7793 53.0366 35.7793H41.5386C40.7762 35.7793 40.0454 35.4773 39.5063 34.9404C38.9673 34.4035 38.6636 33.6754 38.6636 32.916V32.25C35.6348 30.6725 33.0969 28.3001 31.3237 25.3896C29.5505 22.4791 28.6093 19.1409 28.603 15.7363C28.6031 15.3568 28.7546 14.993 29.0239 14.7246C29.2935 14.4561 29.6593 14.3047 30.0405 14.3047H31.5444C31.9057 10.3946 33.7199 6.75962 36.6323 4.11328C39.5449 1.46687 43.3453 4.13151e-05 47.2876 0ZM39.7349 17.7051V29.4189H41.8511V23.6436L41.7231 21.6807H41.8511L44.7622 26.9316H46.0513L48.9468 21.6807H49.0747L48.9468 23.6436V29.4189H51.0796V17.7051H48.9468L45.4624 23.9053H45.3354L41.8511 17.7051H39.7349ZM53.2495 21.4023V29.4189H55.3345V21.4023H53.2495ZM54.2837 17.4922C54.1036 17.4922 53.9288 17.5302 53.7593 17.6064C53.6002 17.6719 53.4569 17.7705 53.3296 17.9014C53.2129 18.0213 53.1167 18.1626 53.0425 18.3262C52.9788 18.4897 52.9478 18.6699 52.9478 18.8662C52.9478 19.0625 52.9789 19.2427 53.0425 19.4062C53.1167 19.5698 53.2129 19.7168 53.3296 19.8477C53.4569 19.9676 53.6002 20.0662 53.7593 20.1426C53.9288 20.2079 54.1036 20.2402 54.2837 20.2402C54.655 20.2402 54.9736 20.1094 55.2388 19.8477C55.5038 19.575 55.6362 19.2479 55.6362 18.8662C55.6362 18.4846 55.5038 18.1631 55.2388 17.9014C54.9736 17.6287 54.655 17.4922 54.2837 17.4922ZM47.2876 2.85254C44.1071 2.85635 41.0388 4.02552 38.6685 6.1377C36.2983 8.24978 34.7917 11.157 34.4351 14.3047H39.2622C40.0307 11.6327 41.4933 9.21013 43.5015 7.28027C45.5097 5.35035 47.9932 3.98172 50.7017 3.3125C49.5895 3.00803 48.441 2.8533 47.2876 2.85254ZM58.3169 9.01367C55.2814 9.81986 52.6453 11.7011 50.9028 14.3047H60.1411C59.9328 12.4285 59.3094 10.6217 58.3169 9.01367ZM54.4741 5.71582C51.8008 5.72169 49.1946 6.54933 47.0112 8.08594C44.8278 9.6227 43.1732 11.7936 42.2749 14.3018H47.5757C49.4181 10.7027 52.5796 7.94706 56.4058 6.60645C56.1039 6.30819 55.7879 6.02526 55.4585 5.75684C55.1316 5.73179 54.8028 5.71582 54.4741 5.71582Z" fill="#1FCF97"/>
</svg>
